<mxfile host="app.diagrams.net" modified="2023-05-23T07:52:04.056Z" agent="Mozilla/5.0 (Windows NT 10.0; Win64; x64) AppleWebKit/537.36 (KHTML, like Gecko) Chrome/113.0.0.0 Safari/537.36" etag="zho91BDVsya8caM1435s" version="21.3.2" type="device">
  <diagram id="C5RBs43oDa-KdzZeNtuy" name="Page-1">
    <mxGraphModel dx="927" dy="618" grid="1" gridSize="10" guides="1" tooltips="1" connect="1" arrows="1" fold="1" page="1" pageScale="1" pageWidth="827" pageHeight="1169" math="0" shadow="0">
      <root>
        <mxCell id="WIyWlLk6GJQsqaUBKTNV-0" />
        <mxCell id="WIyWlLk6GJQsqaUBKTNV-1" parent="WIyWlLk6GJQsqaUBKTNV-0" />
        <mxCell id="o6iEz9svOuSVI9pk4N0p-0" value="" style="edgeStyle=orthogonalEdgeStyle;rounded=0;orthogonalLoop=1;jettySize=auto;html=1;" edge="1" parent="WIyWlLk6GJQsqaUBKTNV-1" source="o6iEz9svOuSVI9pk4N0p-1" target="o6iEz9svOuSVI9pk4N0p-3">
          <mxGeometry relative="1" as="geometry" />
        </mxCell>
        <mxCell id="o6iEz9svOuSVI9pk4N0p-1" value="开始" style="strokeWidth=2;html=1;shape=mxgraph.flowchart.terminator;whiteSpace=wrap;" vertex="1" parent="WIyWlLk6GJQsqaUBKTNV-1">
          <mxGeometry x="422.76" y="310" width="115" height="50" as="geometry" />
        </mxCell>
        <mxCell id="o6iEz9svOuSVI9pk4N0p-3" value="前端提交修改个人信息的表单" style="whiteSpace=wrap;html=1;strokeWidth=2;" vertex="1" parent="WIyWlLk6GJQsqaUBKTNV-1">
          <mxGeometry x="390.51" y="400" width="179.5" height="40" as="geometry" />
        </mxCell>
        <mxCell id="o6iEz9svOuSVI9pk4N0p-8" value="" style="edgeStyle=orthogonalEdgeStyle;rounded=0;orthogonalLoop=1;jettySize=auto;html=1;exitX=0.5;exitY=1;exitDx=0;exitDy=0;" edge="1" parent="WIyWlLk6GJQsqaUBKTNV-1" source="o6iEz9svOuSVI9pk4N0p-3" target="o6iEz9svOuSVI9pk4N0p-12">
          <mxGeometry relative="1" as="geometry">
            <mxPoint x="480.25" y="440" as="sourcePoint" />
          </mxGeometry>
        </mxCell>
        <mxCell id="o6iEz9svOuSVI9pk4N0p-10" value="" style="edgeStyle=orthogonalEdgeStyle;rounded=0;orthogonalLoop=1;jettySize=auto;html=1;" edge="1" parent="WIyWlLk6GJQsqaUBKTNV-1" source="o6iEz9svOuSVI9pk4N0p-12" target="o6iEz9svOuSVI9pk4N0p-14">
          <mxGeometry relative="1" as="geometry" />
        </mxCell>
        <mxCell id="o6iEz9svOuSVI9pk4N0p-28" style="edgeStyle=orthogonalEdgeStyle;rounded=0;orthogonalLoop=1;jettySize=auto;html=1;entryX=0.5;entryY=0;entryDx=0;entryDy=0;" edge="1" parent="WIyWlLk6GJQsqaUBKTNV-1" source="o6iEz9svOuSVI9pk4N0p-12" target="o6iEz9svOuSVI9pk4N0p-25">
          <mxGeometry relative="1" as="geometry" />
        </mxCell>
        <mxCell id="o6iEz9svOuSVI9pk4N0p-12" value="表单数据是否合法" style="rhombus;whiteSpace=wrap;html=1;strokeWidth=2;" vertex="1" parent="WIyWlLk6GJQsqaUBKTNV-1">
          <mxGeometry x="390.5" y="480" width="179.5" height="60" as="geometry" />
        </mxCell>
        <mxCell id="o6iEz9svOuSVI9pk4N0p-20" value="" style="edgeStyle=orthogonalEdgeStyle;rounded=0;orthogonalLoop=1;jettySize=auto;html=1;entryX=0.5;entryY=0;entryDx=0;entryDy=0;" edge="1" parent="WIyWlLk6GJQsqaUBKTNV-1" source="o6iEz9svOuSVI9pk4N0p-14">
          <mxGeometry relative="1" as="geometry">
            <mxPoint x="480.25999999999976" y="660" as="targetPoint" />
          </mxGeometry>
        </mxCell>
        <mxCell id="o6iEz9svOuSVI9pk4N0p-14" value="后端调用对应Controller处理请求" style="whiteSpace=wrap;html=1;strokeWidth=2;" vertex="1" parent="WIyWlLk6GJQsqaUBKTNV-1">
          <mxGeometry x="390.51" y="580" width="179.5" height="40" as="geometry" />
        </mxCell>
        <mxCell id="o6iEz9svOuSVI9pk4N0p-15" value="结束" style="strokeWidth=2;html=1;shape=mxgraph.flowchart.terminator;whiteSpace=wrap;" vertex="1" parent="WIyWlLk6GJQsqaUBKTNV-1">
          <mxGeometry x="420.14" y="820" width="120.25" height="42" as="geometry" />
        </mxCell>
        <mxCell id="o6iEz9svOuSVI9pk4N0p-16" value="Y" style="text;html=1;align=center;verticalAlign=middle;resizable=0;points=[];autosize=1;strokeColor=none;fillColor=none;" vertex="1" parent="WIyWlLk6GJQsqaUBKTNV-1">
          <mxGeometry x="480" y="540" width="30" height="30" as="geometry" />
        </mxCell>
        <mxCell id="o6iEz9svOuSVI9pk4N0p-17" value="N" style="text;html=1;align=center;verticalAlign=middle;resizable=0;points=[];autosize=1;strokeColor=none;fillColor=none;" vertex="1" parent="WIyWlLk6GJQsqaUBKTNV-1">
          <mxGeometry x="340" y="480" width="30" height="30" as="geometry" />
        </mxCell>
        <mxCell id="o6iEz9svOuSVI9pk4N0p-40" style="edgeStyle=orthogonalEdgeStyle;rounded=0;orthogonalLoop=1;jettySize=auto;html=1;" edge="1" parent="WIyWlLk6GJQsqaUBKTNV-1" source="o6iEz9svOuSVI9pk4N0p-25">
          <mxGeometry relative="1" as="geometry">
            <mxPoint x="480" y="800" as="targetPoint" />
            <Array as="points">
              <mxPoint x="280" y="800" />
            </Array>
          </mxGeometry>
        </mxCell>
        <mxCell id="o6iEz9svOuSVI9pk4N0p-25" value="返回error" style="whiteSpace=wrap;html=1;strokeWidth=2;" vertex="1" parent="WIyWlLk6GJQsqaUBKTNV-1">
          <mxGeometry x="240" y="630" width="80" height="40" as="geometry" />
        </mxCell>
        <mxCell id="o6iEz9svOuSVI9pk4N0p-38" style="edgeStyle=orthogonalEdgeStyle;rounded=0;orthogonalLoop=1;jettySize=auto;html=1;entryX=0.5;entryY=0;entryDx=0;entryDy=0;" edge="1" parent="WIyWlLk6GJQsqaUBKTNV-1" source="o6iEz9svOuSVI9pk4N0p-34" target="o6iEz9svOuSVI9pk4N0p-37">
          <mxGeometry relative="1" as="geometry" />
        </mxCell>
        <mxCell id="o6iEz9svOuSVI9pk4N0p-34" value="向区块链发起修改用户信息的请求" style="whiteSpace=wrap;html=1;strokeWidth=2;" vertex="1" parent="WIyWlLk6GJQsqaUBKTNV-1">
          <mxGeometry x="390.52" y="660" width="179.5" height="40" as="geometry" />
        </mxCell>
        <mxCell id="o6iEz9svOuSVI9pk4N0p-39" style="edgeStyle=orthogonalEdgeStyle;rounded=0;orthogonalLoop=1;jettySize=auto;html=1;entryX=0.5;entryY=0;entryDx=0;entryDy=0;entryPerimeter=0;" edge="1" parent="WIyWlLk6GJQsqaUBKTNV-1" source="o6iEz9svOuSVI9pk4N0p-37" target="o6iEz9svOuSVI9pk4N0p-15">
          <mxGeometry relative="1" as="geometry" />
        </mxCell>
        <mxCell id="o6iEz9svOuSVI9pk4N0p-37" value="后端将区块链返回结果处理返回处理结果" style="whiteSpace=wrap;html=1;strokeWidth=2;" vertex="1" parent="WIyWlLk6GJQsqaUBKTNV-1">
          <mxGeometry x="390.5" y="740" width="179.5" height="40" as="geometry" />
        </mxCell>
      </root>
    </mxGraphModel>
  </diagram>
</mxfile>
